<?xml version="1.0" encoding="UTF-8" standalone="no"?>
<!-- Created with Inkscape (http://www.inkscape.org/) -->

<svg
   xmlns:dc="http://purl.org/dc/elements/1.1/"
   xmlns:cc="http://creativecommons.org/ns#"
   xmlns:rdf="http://www.w3.org/1999/02/22-rdf-syntax-ns#"
   xmlns:svg="http://www.w3.org/2000/svg"
   xmlns="http://www.w3.org/2000/svg"
   xmlns:xlink="http://www.w3.org/1999/xlink"
   xmlns:sodipodi="http://sodipodi.sourceforge.net/DTD/sodipodi-0.dtd"
   xmlns:inkscape="http://www.inkscape.org/namespaces/inkscape"
   width="744.09448819"
   height="1052.3622047"
   id="svg2"
   version="1.1"
   inkscape:version="0.48.5 r10040"
   sodipodi:docname="New document 1">
  <defs
     id="defs4" />
  <sodipodi:namedview
     id="base"
     pagecolor="#ffffff"
     bordercolor="#666666"
     borderopacity="1.0"
     inkscape:pageopacity="0.0"
     inkscape:pageshadow="2"
     inkscape:zoom="5.6568542"
     inkscape:cx="-9.0575522"
     inkscape:cy="-9.629714"
     inkscape:document-units="px"
     inkscape:current-layer="layer1"
     showgrid="true"
     inkscape:window-width="938"
     inkscape:window-height="869"
     inkscape:window-x="797"
     inkscape:window-y="15"
     inkscape:window-maximized="0">
    <inkscape:grid
       type="xygrid"
       id="grid2985"
       empspacing="5"
       visible="true"
       enabled="true"
       snapvisiblegridlinesonly="true" />
  </sodipodi:namedview>
  <metadata
     id="metadata7">
    <rdf:RDF>
      <cc:Work
         rdf:about="">
        <dc:format>image/svg+xml</dc:format>
        <dc:type
           rdf:resource="http://purl.org/dc/dcmitype/StillImage" />
        <dc:title></dc:title>
      </cc:Work>
    </rdf:RDF>
  </metadata>
  <g
     inkscape:label="Layer 1"
     inkscape:groupmode="layer"
     id="layer1">
    <path
       style="fill:#c6c6c6;fill-opacity:1;stroke:none"
       d="m -8,1066.3622 15,0 0,-40 -15,0 z"
       id="path2987"
       inkscape:connector-curvature="0" />
    <path
       style="fill:#cd071a;fill-opacity:1;stroke:none"
       d="m -8,1046.3622 c -2,0 -10,25 -10,30 0,5 7,1 8,0 1,-1 2,-7 2,-10 0,-3 0,-20 0,-20 z"
       id="path2989"
       inkscape:connector-curvature="0" />
    <path
       style="fill:#cd071a;fill-opacity:1;stroke:none"
       d="m 8,1046.3622 c 2,0 10,25 10,30 0,5 -7,1 -8,0 -1,-1 -2,-7 -2,-10 0,-3 0,-20 0,-20 z"
       id="path2989-1"
       inkscape:connector-curvature="0" />
    <flowRoot
       xml:space="preserve"
       id="flowRoot3009"
       style="font-size:4px;font-style:normal;font-variant:normal;font-weight:normal;font-stretch:normal;line-height:125%;letter-spacing:0px;word-spacing:0px;fill:#000000;fill-opacity:1;stroke:none;font-family:Segoe Print;-inkscape-font-specification:Segoe Print"
       transform="translate(0,14)"><flowRegion
         id="flowRegion3011"><rect
           id="rect3013"
           width="8.75"
           height="24.642857"
           x="2.5892856"
           y="1014.9515"
           style="font-size:4px" /></flowRegion><flowPara
         id="flowPara3015">B1 </flowPara></flowRoot>    <rect
       style="fill:#e4e4e4;fill-opacity:1;stroke:none"
       id="rect3793"
       width="6"
       height="40"
       x="2"
       y="1026.3622" />
    <g
       id="g3799"
       transform="translate(-8,14)">
      <path
         style="fill:#ffffff;fill-opacity:1;stroke:none"
         d="m 2,1031.3622 c 0,0 1,0 1,1 0,1 0,19 0,19 l -1,0 z"
         id="rect3795"
         inkscape:connector-curvature="0"
         sodipodi:nodetypes="czccc" />
      <path
         style="fill:#8c8c8c;fill-opacity:1;stroke:none"
         d="m 1,1032.3622 c 0,-1 1,-1 1,-1 l 0,20 -1,0 c 0,0 0,-18 0,-19 z"
         id="rect3797"
         inkscape:connector-curvature="0"
         sodipodi:nodetypes="zcccz" />
    </g>
    <use
       x="0"
       y="0"
       xlink:href="#g3799"
       id="use3803"
       transform="translate(4,0)"
       width="744.09448"
       height="1052.3622" />
    <use
       x="0"
       y="0"
       xlink:href="#g3799"
       id="use3805"
       transform="translate(8,0)"
       width="744.09448"
       height="1052.3622" />
    <use
       x="0"
       y="0"
       xlink:href="#g3799"
       id="use3807"
       transform="translate(12,0)"
       width="744.09448"
       height="1052.3622" />
  </g>
</svg>
