<?xml version="1.0" encoding="UTF-8" standalone="no"?>
<!-- Created with Inkscape (http://www.inkscape.org/) -->

<svg
   xmlns:dc="http://purl.org/dc/elements/1.1/"
   xmlns:cc="http://creativecommons.org/ns#"
   xmlns:rdf="http://www.w3.org/1999/02/22-rdf-syntax-ns#"
   xmlns:svg="http://www.w3.org/2000/svg"
   xmlns="http://www.w3.org/2000/svg"
   xmlns:xlink="http://www.w3.org/1999/xlink"
   xmlns:sodipodi="http://sodipodi.sourceforge.net/DTD/sodipodi-0.dtd"
   xmlns:inkscape="http://www.inkscape.org/namespaces/inkscape"
   width="3000"
   height="1000"
   id="svg2"
   version="1.1"
   inkscape:version="0.48.5 r10040"
   sodipodi:docname="cape.svg">
  <defs
     id="defs4">
    <linearGradient
       id="linearGradient3815">
      <stop
         style="stop-color:#5292f4;stop-opacity:1;"
         offset="0"
         id="stop3817" />
      <stop
         style="stop-color:#075770;stop-opacity:1;"
         offset="1"
         id="stop3819" />
    </linearGradient>
    <linearGradient
       inkscape:collect="always"
       xlink:href="#linearGradient3815"
       id="linearGradient3821"
       x1="370"
       y1="562.36218"
       x2="2080"
       y2="562.36218"
       gradientUnits="userSpaceOnUse"
       gradientTransform="translate(924,0)" />
  </defs>
  <sodipodi:namedview
     id="base"
     pagecolor="#ffffff"
     bordercolor="#666666"
     borderopacity="1.0"
     inkscape:pageopacity="0.0"
     inkscape:pageshadow="2"
     inkscape:zoom="1.979899"
     inkscape:cx="1457.4191"
     inkscape:cy="653.84186"
     inkscape:document-units="px"
     inkscape:current-layer="layer1"
     showgrid="true"
     inkscape:window-width="1920"
     inkscape:window-height="1017"
     inkscape:window-x="-8"
     inkscape:window-y="-8"
     inkscape:window-maximized="1">
    <inkscape:grid
       type="xygrid"
       id="grid2987"
       empspacing="5"
       visible="true"
       enabled="true"
       snapvisiblegridlinesonly="true" />
  </sodipodi:namedview>
  <metadata
     id="metadata7">
    <rdf:RDF>
      <cc:Work
         rdf:about="">
        <dc:format>image/svg+xml</dc:format>
        <dc:type
           rdf:resource="http://purl.org/dc/dcmitype/StillImage" />
        <dc:title />
      </cc:Work>
    </rdf:RDF>
  </metadata>
  <g
     inkscape:label="Layer 1"
     inkscape:groupmode="layer"
     id="layer1"
     transform="translate(0,-52.362168)">
    <path
       style="fill:url(#linearGradient3821);fill-opacity:1;stroke:none"
       d="m 3014,517.36218 -1720,0 0,35 1710,55 z"
       id="path3045"
       inkscape:connector-curvature="0"
       sodipodi:nodetypes="ccccc" />
    <path
       style="fill:#723802;fill-opacity:1;stroke:none"
       d="m 324,512.36217 972.8571,4.28569 c 0,0 -7.1428,15.7143 8.5715,27.1428 15.7143,11.4286 95.7143,-4.2857 160,1.4286 64.2857,5.7143 107.1428,10 130,14.2857 C 1618.2857,563.79066 2884,572.36218 2884,572.36218 l 0,480.00002 -2560,0 z"
       id="path2985"
       inkscape:connector-curvature="0"
       sodipodi:nodetypes="ccssscccc" />
    <path
       style="fill:#e7e7e7;fill-opacity:1;stroke:none"
       d="m 1049,502.36216 0,25 205,0 0,-25 z"
       id="path3757"
       inkscape:connector-curvature="0" />
    <path
       style="fill:#ddc7dc;fill-opacity:1;stroke:none"
       d="m 1084,287.37492 -10,215.00004 40,0 -10,-215.00004 -20,0 z m 9.5,15 c 0.1681,-0.0171 0.3274,0 0.5,0 2.7614,0 5,2.23858 5,5 0,2.76143 -2.2386,5 -5,5 -2.7614,0 -5,-2.23857 -5,-5 0,-2.58883 1.9787,-4.74395 4.5,-5 z m 0,20 c 0.1681,-0.0171 0.3274,0 0.5,0 2.7614,0 5,2.23858 5,5 0,2.76143 -2.2386,5 -5,5 -2.7614,0 -5,-2.23857 -5,-5 0,-2.58883 1.9787,-4.74395 4.5,-5 z m 0.5,25 c 5.5228,0 10,4.47716 10,10 0,5.52285 -4.4772,10 -10,10 -5.5228,0 -10,-4.47715 -10,-10 0,-5.52284 4.4772,-10 10,-10 z m 0,35 c 5.5228,0 10,4.47716 10,10 0,5.52285 -4.4772,10 -10,10 -5.5228,0 -10,-4.47715 -10,-10 0,-5.52284 4.4772,-10 10,-10 z m 0,35 c 5.5228,0 10,4.47716 10,10 0,5.52285 -4.4772,10 -10,10 -5.5228,0 -10,-4.47715 -10,-10 0,-5.52284 4.4772,-10 10,-10 z m 0,45.00004 c 8.2843,0 15,6.7157 15,15 0,8.2843 -6.7157,15 -15,15 -8.2843,0 -15,-6.7157 -15,-15 0,-8.2843 6.7157,-15 15,-15 z"
       id="path3759"
       inkscape:connector-curvature="0" />
    <path
       sodipodi:type="arc"
       style="fill:#5292f4;fill-opacity:1;stroke:none"
       id="path3024"
       sodipodi:cx="1145"
       sodipodi:cy="450"
       sodipodi:rx="5"
       sodipodi:ry="5"
       d="m 1150,450 c 0,2.76142 -2.2386,5 -5,5 -2.7614,0 -5,-2.23858 -5,-5 0,-2.76142 2.2386,-5 5,-5 2.7614,0 5,2.23858 5,5 z"
       transform="translate(0,52.362168)">
      <title
         id="title3026">center_of_gravity</title>
    </path>
    <text
       xml:space="preserve"
       style="font-size:16px;font-style:normal;font-variant:normal;font-weight:normal;font-stretch:normal;line-height:125%;letter-spacing:0px;word-spacing:0px;fill:#000000;fill-opacity:1;stroke:none;font-family:Segoe Print;-inkscape-font-specification:Segoe Print"
       x="1171.7769"
       y="287.5899"
       id="text3050"
       sodipodi:linespacing="125%"
       transform="translate(0,52.362168)"><title
         id="title3237">metadata</title><tspan
         sodipodi:role="line"
         id="tspan3052"
         x="1171.7769"
         y="287.5899" /><tspan
         sodipodi:role="line"
         x="1171.7769"
         y="307.5899"
         id="tspan3054">{</tspan><tspan
         sodipodi:role="line"
         x="1171.7769"
         y="327.5899"
         id="tspan3094">  &quot;pixels_per_meter&quot;: 2.0</tspan><tspan
         sodipodi:role="line"
         x="1171.7769"
         y="347.5899"
         id="tspan3096">}</tspan><tspan
         sodipodi:role="line"
         x="1171.7769"
         y="367.5899"
         id="tspan3098" /><tspan
         sodipodi:role="line"
         x="1171.7769"
         y="387.5899"
         id="tspan3100" /></text>
  </g>
</svg>
